<mxfile host="app.diagrams.net" modified="2023-10-03T01:09:03.604Z" agent="Mozilla/5.0 (Windows NT 10.0; Win64; x64) AppleWebKit/537.36 (KHTML, like Gecko) Chrome/117.0.0.0 Safari/537.36 Edg/117.0.2045.47" etag="4dnIeRhjpfXNgjB-4zwb" version="22.0.0" type="device">
  <diagram id="C5RBs43oDa-KdzZeNtuy" name="Page-1">
    <mxGraphModel dx="2497" dy="2131" grid="1" gridSize="10" guides="1" tooltips="1" connect="1" arrows="1" fold="1" page="1" pageScale="1" pageWidth="827" pageHeight="1169" math="0" shadow="0">
      <root>
        <mxCell id="WIyWlLk6GJQsqaUBKTNV-0" />
        <mxCell id="WIyWlLk6GJQsqaUBKTNV-1" parent="WIyWlLk6GJQsqaUBKTNV-0" />
        <mxCell id="JnuiVlX9hye5FPYkadC7-0" value="Старт" style="ellipse;whiteSpace=wrap;html=1;" vertex="1" parent="WIyWlLk6GJQsqaUBKTNV-1">
          <mxGeometry x="-595" y="-1150" width="120" height="80" as="geometry" />
        </mxCell>
        <mxCell id="JnuiVlX9hye5FPYkadC7-8" value="&lt;font&gt;Задать&amp;nbsp;размер и &lt;br&gt;элементы массива&lt;/font&gt;" style="shape=parallelogram;perimeter=parallelogramPerimeter;whiteSpace=wrap;html=1;fixedSize=1;" vertex="1" parent="WIyWlLk6GJQsqaUBKTNV-1">
          <mxGeometry x="-620" y="-1010" width="160" height="70" as="geometry" />
        </mxCell>
        <mxCell id="JnuiVlX9hye5FPYkadC7-68" value="" style="edgeStyle=orthogonalEdgeStyle;rounded=0;orthogonalLoop=1;jettySize=auto;html=1;" edge="1" parent="WIyWlLk6GJQsqaUBKTNV-1" source="JnuiVlX9hye5FPYkadC7-65" target="JnuiVlX9hye5FPYkadC7-67">
          <mxGeometry relative="1" as="geometry" />
        </mxCell>
        <mxCell id="JnuiVlX9hye5FPYkadC7-72" value="&lt;br&gt;&lt;font&gt;ДА&lt;br&gt;&lt;/font&gt;" style="edgeLabel;html=1;align=center;verticalAlign=middle;resizable=0;points=[];" vertex="1" connectable="0" parent="JnuiVlX9hye5FPYkadC7-68">
          <mxGeometry x="-0.142" y="-2" relative="1" as="geometry">
            <mxPoint y="-29" as="offset" />
          </mxGeometry>
        </mxCell>
        <mxCell id="JnuiVlX9hye5FPYkadC7-70" value="" style="edgeStyle=orthogonalEdgeStyle;rounded=0;orthogonalLoop=1;jettySize=auto;html=1;" edge="1" parent="WIyWlLk6GJQsqaUBKTNV-1" source="JnuiVlX9hye5FPYkadC7-65" target="JnuiVlX9hye5FPYkadC7-69">
          <mxGeometry relative="1" as="geometry" />
        </mxCell>
        <mxCell id="JnuiVlX9hye5FPYkadC7-71" value="&amp;nbsp; НЕТ&amp;nbsp;&amp;nbsp;" style="edgeLabel;html=1;align=center;verticalAlign=middle;resizable=0;points=[];" vertex="1" connectable="0" parent="JnuiVlX9hye5FPYkadC7-70">
          <mxGeometry x="-0.0309" y="1" relative="1" as="geometry">
            <mxPoint as="offset" />
          </mxGeometry>
        </mxCell>
        <mxCell id="JnuiVlX9hye5FPYkadC7-65" value="Левый элемент массива меньше правого&amp;nbsp;" style="rhombus;whiteSpace=wrap;html=1;" vertex="1" parent="WIyWlLk6GJQsqaUBKTNV-1">
          <mxGeometry x="-620" y="-560" width="165" height="130" as="geometry" />
        </mxCell>
        <mxCell id="JnuiVlX9hye5FPYkadC7-67" value="Смещаемся на один элемент вправо" style="rounded=1;whiteSpace=wrap;html=1;" vertex="1" parent="WIyWlLk6GJQsqaUBKTNV-1">
          <mxGeometry x="-597.5" y="-315" width="120" height="60" as="geometry" />
        </mxCell>
        <mxCell id="JnuiVlX9hye5FPYkadC7-69" value="Меняем элементы массива местами" style="rounded=1;whiteSpace=wrap;html=1;" vertex="1" parent="WIyWlLk6GJQsqaUBKTNV-1">
          <mxGeometry x="-450" y="-400" width="120" height="60" as="geometry" />
        </mxCell>
        <mxCell id="JnuiVlX9hye5FPYkadC7-76" value="" style="endArrow=classic;html=1;rounded=0;exitX=0;exitY=0.5;exitDx=0;exitDy=0;" edge="1" parent="WIyWlLk6GJQsqaUBKTNV-1" source="JnuiVlX9hye5FPYkadC7-69">
          <mxGeometry width="50" height="50" relative="1" as="geometry">
            <mxPoint x="-420" y="-310" as="sourcePoint" />
            <mxPoint x="-540" y="-370" as="targetPoint" />
          </mxGeometry>
        </mxCell>
        <mxCell id="JnuiVlX9hye5FPYkadC7-77" value="" style="endArrow=classic;html=1;rounded=0;" edge="1" parent="WIyWlLk6GJQsqaUBKTNV-1">
          <mxGeometry width="50" height="50" relative="1" as="geometry">
            <mxPoint x="-470" y="-285" as="sourcePoint" />
            <mxPoint x="-530" y="-790" as="targetPoint" />
            <Array as="points">
              <mxPoint x="-290" y="-285" />
              <mxPoint x="-290" y="-790" />
            </Array>
          </mxGeometry>
        </mxCell>
        <mxCell id="JnuiVlX9hye5FPYkadC7-87" value="&lt;span style=&quot;color: rgba(0, 0, 0, 0); font-family: monospace; font-size: 0px; font-style: normal; font-variant-ligatures: normal; font-variant-caps: normal; font-weight: 400; letter-spacing: normal; orphans: 2; text-align: start; text-indent: 0px; text-transform: none; widows: 2; word-spacing: 0px; -webkit-text-stroke-width: 0px; background-color: rgb(251, 251, 251); text-decoration-thickness: initial; text-decoration-style: initial; text-decoration-color: initial; float: none; display: inline !important;&quot;&gt;%3CmxGraphModel%3E%3Croot%3E%3CmxCell%20id%3D%220%22%2F%3E%3CmxCell%20id%3D%221%22%20parent%3D%220%22%2F%3E%3CmxCell%20id%3D%222%22%20value%3D%22%D0%9B%D0%B5%D0%B2%D1%8B%D0%B9%20%D1%8D%D0%BB%D0%B5%D0%BC%D0%B5%D0%BD%D1%82%20%D0%BC%D0%B0%D1%81%D1%81%D0%B8%D0%B2%D0%B0%20%D0%BC%D0%B5% D0%BD%D1%8C%D1%88%D0%B5%20%D0%BF%D1%80%D0%B0%D0%B2%D0%BE%D0%B3%D0%BE%26amp%3Bnbsp%3B%22%20style%3D%22rhombus%3BwhiteSpace%3Dwrap%3Bhtml%3D1%3B%22%20vertex%3D%221%22%20%3vertex%221D%22%3%3%20 3parent%22120D%22%20%3E%22CmxGeometry%150x%22D%20%3%22165y%22D%20-3%22130%22width%20D%3%22%22height%2D%3%3%2as%3D%3geometry%2%3F%3E&lt;/span&gt;" style="text;whiteSpace=wrap;html=1;" vertex="1" parent="WIyWlLk6GJQsqaUBKTNV-1">
          <mxGeometry x="-780" y="-800" width="30" height="40" as="geometry" />
        </mxCell>
        <mxCell id="JnuiVlX9hye5FPYkadC7-88" value="&lt;span style=&quot;color: rgba(0, 0, 0, 0); font-family: monospace; font-size: 0px; font-style: normal; font-variant-ligatures: normal; font-variant-caps: normal; font-weight: 400; letter-spacing: normal; orphans: 2; text-align: start; text-indent: 0px; text-transform: none; widows: 2; word-spacing: 0px; -webkit-text-stroke-width: 0px; background-color: rgb(251, 251, 251); text-decoration-thickness: initial; text-decoration-style: initial; text-decoration-color: initial; float: none; display: inline !important;&quot;&gt;%3CmxGraphModel%3E%3Croot%3E%3CmxCell%20id%3D%220%22%2F%3E%3CmxCell%20id%3D%221%22%20parent%3D%220%22%2F%3E%3CmxCell%20id%3D%222%22%20value%3D%22%D0%9B%D0%B5%D0%B2%D1%8B%D0%B9%20%D1%8D%D0%BB%D0%B5%D0%BC%D0%B5%D0%BD%D1%82%20%D0%BC%D0%B0%D1%81%D1%81%D0%B8%D0%B2%D0%B0%20%D0%BC%D0%B5% D0%BD%D1%8C%D1%88%D0%B5%20%D0%BF%D1%80%D0%B0%D0%B2%D0%BE%D0%B3%D0%BE%26amp%3Bnbsp%3B%22%20style%3D%22rhombus%3BwhiteSpace%3Dwrap%3Bhtml%3D1%3B%22%20vertex%3D%221%22%20%3vertex%221D%22%3%3%20 3parent%22120D%22%20%3E%22CmxGeometry%150x%22D%20%3%22165y%22D%20-3%22130%22width%20D%3%22%22height%2D%3%3%2as%3D%3geometry%2%3F%3E&lt;/span&gt;" style="text;whiteSpace=wrap;html=1;" vertex="1" parent="WIyWlLk6GJQsqaUBKTNV-1">
          <mxGeometry x="-280" y="-920" width="30" height="40" as="geometry" />
        </mxCell>
        <mxCell id="JnuiVlX9hye5FPYkadC7-91" value="" style="edgeStyle=orthogonalEdgeStyle;rounded=0;orthogonalLoop=1;jettySize=auto;html=1;" edge="1" parent="WIyWlLk6GJQsqaUBKTNV-1" source="JnuiVlX9hye5FPYkadC7-89" target="JnuiVlX9hye5FPYkadC7-65">
          <mxGeometry relative="1" as="geometry">
            <Array as="points">
              <mxPoint x="-540" y="-580" />
              <mxPoint x="-540" y="-580" />
            </Array>
          </mxGeometry>
        </mxCell>
        <mxCell id="JnuiVlX9hye5FPYkadC7-92" value="ДА" style="edgeLabel;html=1;align=center;verticalAlign=middle;resizable=0;points=[];" vertex="1" connectable="0" parent="JnuiVlX9hye5FPYkadC7-91">
          <mxGeometry x="-0.4886" y="1" relative="1" as="geometry">
            <mxPoint as="offset" />
          </mxGeometry>
        </mxCell>
        <mxCell id="JnuiVlX9hye5FPYkadC7-89" value="Индекс левого элемента массива меньше индекса правого элемента массива" style="rhombus;whiteSpace=wrap;html=1;" vertex="1" parent="WIyWlLk6GJQsqaUBKTNV-1">
          <mxGeometry x="-620" y="-760" width="170" height="130" as="geometry" />
        </mxCell>
        <mxCell id="JnuiVlX9hye5FPYkadC7-90" value="Правый элемент массива больше левого" style="rhombus;whiteSpace=wrap;html=1;" vertex="1" parent="WIyWlLk6GJQsqaUBKTNV-1">
          <mxGeometry x="-620" y="117" width="170" height="130" as="geometry" />
        </mxCell>
        <mxCell id="JnuiVlX9hye5FPYkadC7-98" value="" style="edgeStyle=orthogonalEdgeStyle;rounded=0;orthogonalLoop=1;jettySize=auto;html=1;" edge="1" parent="WIyWlLk6GJQsqaUBKTNV-1" target="JnuiVlX9hye5FPYkadC7-103">
          <mxGeometry relative="1" as="geometry">
            <mxPoint x="-535" y="247" as="sourcePoint" />
          </mxGeometry>
        </mxCell>
        <mxCell id="JnuiVlX9hye5FPYkadC7-99" value="&lt;br&gt;&lt;font&gt;ДА&lt;br&gt;&lt;/font&gt;" style="edgeLabel;html=1;align=center;verticalAlign=middle;resizable=0;points=[];" vertex="1" connectable="0" parent="JnuiVlX9hye5FPYkadC7-98">
          <mxGeometry x="-0.142" y="-2" relative="1" as="geometry">
            <mxPoint y="-29" as="offset" />
          </mxGeometry>
        </mxCell>
        <mxCell id="JnuiVlX9hye5FPYkadC7-103" value="Смещаемся на один элемент влево" style="rounded=1;whiteSpace=wrap;html=1;" vertex="1" parent="WIyWlLk6GJQsqaUBKTNV-1">
          <mxGeometry x="-595" y="362" width="120" height="60" as="geometry" />
        </mxCell>
        <mxCell id="JnuiVlX9hye5FPYkadC7-104" value="Меняем элементы массива местами" style="rounded=1;whiteSpace=wrap;html=1;" vertex="1" parent="WIyWlLk6GJQsqaUBKTNV-1">
          <mxGeometry x="-441" y="277" width="120" height="60" as="geometry" />
        </mxCell>
        <mxCell id="JnuiVlX9hye5FPYkadC7-110" value="" style="edgeStyle=orthogonalEdgeStyle;rounded=0;orthogonalLoop=1;jettySize=auto;html=1;" edge="1" parent="WIyWlLk6GJQsqaUBKTNV-1" source="JnuiVlX9hye5FPYkadC7-89" target="JnuiVlX9hye5FPYkadC7-109">
          <mxGeometry relative="1" as="geometry">
            <mxPoint x="-620" y="-695" as="sourcePoint" />
            <mxPoint x="-900" y="120" as="targetPoint" />
            <Array as="points">
              <mxPoint x="-670" y="-695" />
            </Array>
          </mxGeometry>
        </mxCell>
        <mxCell id="JnuiVlX9hye5FPYkadC7-112" value="&amp;nbsp;НЕТ&amp;nbsp;" style="edgeLabel;html=1;align=center;verticalAlign=middle;resizable=0;points=[];" vertex="1" connectable="0" parent="JnuiVlX9hye5FPYkadC7-110">
          <mxGeometry x="-0.2099" y="-3" relative="1" as="geometry">
            <mxPoint x="33" y="-86" as="offset" />
          </mxGeometry>
        </mxCell>
        <mxCell id="JnuiVlX9hye5FPYkadC7-139" value="Да" style="edgeLabel;html=1;align=center;verticalAlign=middle;resizable=0;points=[];" vertex="1" connectable="0" parent="JnuiVlX9hye5FPYkadC7-110">
          <mxGeometry x="0.4572" y="1" relative="1" as="geometry">
            <mxPoint as="offset" />
          </mxGeometry>
        </mxCell>
        <mxCell id="JnuiVlX9hye5FPYkadC7-109" value="Сдвигаем правую границу массива на один элемент&amp;nbsp;" style="rounded=1;whiteSpace=wrap;html=1;" vertex="1" parent="WIyWlLk6GJQsqaUBKTNV-1">
          <mxGeometry x="-730" y="-400" width="120" height="60" as="geometry" />
        </mxCell>
        <mxCell id="JnuiVlX9hye5FPYkadC7-114" value="" style="endArrow=classic;html=1;rounded=0;entryX=0.439;entryY=-0.012;entryDx=0;entryDy=0;entryPerimeter=0;" edge="1" parent="WIyWlLk6GJQsqaUBKTNV-1" target="JnuiVlX9hye5FPYkadC7-104">
          <mxGeometry width="50" height="50" relative="1" as="geometry">
            <mxPoint x="-445" y="182" as="sourcePoint" />
            <mxPoint x="-315" y="7" as="targetPoint" />
            <Array as="points">
              <mxPoint x="-388" y="182" />
            </Array>
          </mxGeometry>
        </mxCell>
        <mxCell id="JnuiVlX9hye5FPYkadC7-115" value="&amp;nbsp;НЕТ&amp;nbsp;" style="edgeLabel;html=1;align=center;verticalAlign=middle;resizable=0;points=[];" vertex="1" connectable="0" parent="JnuiVlX9hye5FPYkadC7-114">
          <mxGeometry x="-0.4453" y="1" relative="1" as="geometry">
            <mxPoint x="-1" as="offset" />
          </mxGeometry>
        </mxCell>
        <mxCell id="JnuiVlX9hye5FPYkadC7-116" value="" style="endArrow=classic;html=1;rounded=0;" edge="1" parent="WIyWlLk6GJQsqaUBKTNV-1">
          <mxGeometry width="50" height="50" relative="1" as="geometry">
            <mxPoint x="-445" y="307" as="sourcePoint" />
            <mxPoint x="-535" y="307" as="targetPoint" />
          </mxGeometry>
        </mxCell>
        <mxCell id="JnuiVlX9hye5FPYkadC7-126" value="" style="edgeStyle=orthogonalEdgeStyle;rounded=0;orthogonalLoop=1;jettySize=auto;html=1;" edge="1" parent="WIyWlLk6GJQsqaUBKTNV-1" source="JnuiVlX9hye5FPYkadC7-117" target="JnuiVlX9hye5FPYkadC7-125">
          <mxGeometry relative="1" as="geometry" />
        </mxCell>
        <mxCell id="JnuiVlX9hye5FPYkadC7-127" value="&amp;nbsp;НЕТ&amp;nbsp;" style="edgeLabel;html=1;align=center;verticalAlign=middle;resizable=0;points=[];" vertex="1" connectable="0" parent="JnuiVlX9hye5FPYkadC7-126">
          <mxGeometry x="-0.5799" y="-4" relative="1" as="geometry">
            <mxPoint as="offset" />
          </mxGeometry>
        </mxCell>
        <mxCell id="JnuiVlX9hye5FPYkadC7-138" value="Да" style="edgeLabel;html=1;align=center;verticalAlign=middle;resizable=0;points=[];" vertex="1" connectable="0" parent="JnuiVlX9hye5FPYkadC7-126">
          <mxGeometry x="0.7557" y="-2" relative="1" as="geometry">
            <mxPoint as="offset" />
          </mxGeometry>
        </mxCell>
        <mxCell id="JnuiVlX9hye5FPYkadC7-117" value="Индекс правого элемента массива больше индекса левого элемента массива" style="rhombus;whiteSpace=wrap;html=1;" vertex="1" parent="WIyWlLk6GJQsqaUBKTNV-1">
          <mxGeometry x="-620" y="-73" width="170" height="130" as="geometry" />
        </mxCell>
        <mxCell id="JnuiVlX9hye5FPYkadC7-119" value="&lt;span style=&quot;color: rgba(0, 0, 0, 0); font-family: monospace; font-size: 0px; font-style: normal; font-variant-ligatures: normal; font-variant-caps: normal; font-weight: 400; letter-spacing: normal; orphans: 2; text-align: start; text-indent: 0px; text-transform: none; widows: 2; word-spacing: 0px; -webkit-text-stroke-width: 0px; background-color: rgb(251, 251, 251); text-decoration-thickness: initial; text-decoration-style: initial; text-decoration-color: initial; float: none; display: inline !important;&quot;&gt;%3CmxGraphModel%3E%3Croot%3E%3CmxCell%20id%3D%220%22%2F%3E%3CmxCell%20id%3D%221%22%20parent%3D%220%22%2F%3E%3CmxCell%20id%3D%222%22%20value%3D%22%22%20style%3D%22edgeStyle%3DorthogonalEdgeStyle%3Brounded%3D0%3D3%1BorthogonalLoop%3D3%3BjettySize%3Dauto%1Bhtml%3D22%20B%3%221edge%22D%20%3%221parent%22D%3%3%20E%3CmxGeometry%221relative%22D%20%3%22as%22D%3geometry%3%20E%3CmxPoint%22200x%22D%20%3%22y%224D%22-20%3%22%22as%2D% 3sourcePoint%3%20F%3E%22200CmxPoint%22x%20D%3%22%148y%22D%20-3%22%22as%2D%3targetPoint%3%20F%3E%22CArray%22as%3D%3points%20%3E%22200CmxPoint%22x%20D%3%22%170y%22D%2-3%3%20F%3E%22200CmxPoint point%22x%20D%3%22%170y%22D%2-3%3%2F%3E%3C%2FArray%3E%3C%2FmxGeometry%3E%3C%20FmxCell%3E%223CmxCell%22id%20D%3%22%0value%94D%0%D90%22%D20%3%22%3style%3D%1edgeLabel%3Bhtml%3D3%3Balign% 3Dcenter%3BverticalAlign%0Dmiddle%3Bresizable%3D5%5Bpoints%3D%22B%20D%3B%221%22vertex%20D%3%220%22connectable%20D%3%222%22parent%3D%3%20%3E%22CmxGeometry%0x%4886D%22-20.3%221%22y%20D%3%221%22relative%20D%3%22%22as%3D%3geometry%20%3E%22CmxPoint%22as%2D%3offset%3%2F%3E%3C%2FmxGeometry%3E%3C%2FmxCell%3E%3C%2Froot%3E&lt;/span&gt;" style="text;whiteSpace=wrap;html=1;" vertex="1" parent="WIyWlLk6GJQsqaUBKTNV-1">
          <mxGeometry x="-140" y="-590" width="30" height="40" as="geometry" />
        </mxCell>
        <mxCell id="JnuiVlX9hye5FPYkadC7-120" value="&lt;span style=&quot;color: rgba(0, 0, 0, 0); font-family: monospace; font-size: 0px; font-style: normal; font-variant-ligatures: normal; font-variant-caps: normal; font-weight: 400; letter-spacing: normal; orphans: 2; text-align: start; text-indent: 0px; text-transform: none; widows: 2; word-spacing: 0px; -webkit-text-stroke-width: 0px; background-color: rgb(251, 251, 251); text-decoration-thickness: initial; text-decoration-style: initial; text-decoration-color: initial; float: none; display: inline !important;&quot;&gt;%3CmxGraphModel%3E%3Croot%3E%3CmxCell%20id%3D%220%22%2F%3E%3CmxCell%20id%3D%221%22%20parent%3D%220%22%2F%3E%3CmxCell%20id%3D%222%22%20value%3D%22%22%20style%3D%22edgeStyle%3DorthogonalEdgeStyle%3Brounded%3D0%3D3%1BorthogonalLoop%3D3%3BjettySize%3Dauto%1Bhtml%3D22%20B%3%221edge%22D%20%3%221parent%22D%3%3%20E%3CmxGeometry%221relative%22D%20%3%22as%22D%3geometry%3%20E%3CmxPoint%22200x%22D%20%3%22y%224D%22-20%3%22%22as%2D% 3sourcePoint%3%20F%3E%22200CmxPoint%22x%20D%3%22%148y%22D%20-3%22%22as%2D%3targetPoint%3%20F%3E%22CArray%22as%3D%3points%20%3E%22200CmxPoint%22x%20D%3%22%170y%22D%2-3%3%20F%3E%22200CmxPoint point%22x%20D%3%22%170y%22D%2-3%3%2F%3E%3C%2FArray%3E%3C%2FmxGeometry%3E%3C%20FmxCell%3E%223CmxCell%22id%20D%3%22%0value%94D%0%D90%22%D20%3%22%3style%3D%1edgeLabel%3Bhtml%3D3%3Balign% 3Dcenter%3BverticalAlign%0Dmiddle%3Bresizable%3D5%5Bpoints%3D%22B%20D%3B%221%22vertex%20D%3%220%22connectable%20D%3%222%22parent%3D%3%20%3E%22CmxGeometry%0x%4886D%22-20.3%221%22y%20D%3%221%22relative%20D%3%22%22as%3D%3geometry%20%3E%22CmxPoint%22as%2D%3offset%3%2F%3E%3C%2FmxGeometry%3E%3C%2FmxCell%3E%3C%2Froot%3E&lt;/span&gt;" style="text;whiteSpace=wrap;html=1;" vertex="1" parent="WIyWlLk6GJQsqaUBKTNV-1">
          <mxGeometry x="-390" y="-580" width="30" height="40" as="geometry" />
        </mxCell>
        <mxCell id="JnuiVlX9hye5FPYkadC7-121" value="" style="endArrow=classic;html=1;rounded=0;exitX=0.5;exitY=1;exitDx=0;exitDy=0;entryX=0.5;entryY=0;entryDx=0;entryDy=0;" edge="1" parent="WIyWlLk6GJQsqaUBKTNV-1" source="JnuiVlX9hye5FPYkadC7-117" target="JnuiVlX9hye5FPYkadC7-90">
          <mxGeometry width="50" height="50" relative="1" as="geometry">
            <mxPoint x="-260" y="137" as="sourcePoint" />
            <mxPoint x="-210" y="87" as="targetPoint" />
          </mxGeometry>
        </mxCell>
        <mxCell id="JnuiVlX9hye5FPYkadC7-122" value="ДА" style="edgeLabel;html=1;align=center;verticalAlign=middle;resizable=0;points=[];" vertex="1" connectable="0" parent="JnuiVlX9hye5FPYkadC7-121">
          <mxGeometry x="-0.1107" y="3" relative="1" as="geometry">
            <mxPoint as="offset" />
          </mxGeometry>
        </mxCell>
        <mxCell id="JnuiVlX9hye5FPYkadC7-123" value="" style="endArrow=classic;html=1;rounded=0;exitX=0;exitY=0.5;exitDx=0;exitDy=0;" edge="1" parent="WIyWlLk6GJQsqaUBKTNV-1" source="JnuiVlX9hye5FPYkadC7-103">
          <mxGeometry width="50" height="50" relative="1" as="geometry">
            <mxPoint x="-260" y="160" as="sourcePoint" />
            <mxPoint x="-535" y="-120" as="targetPoint" />
            <Array as="points">
              <mxPoint x="-670" y="392" />
              <mxPoint x="-670" y="110" />
              <mxPoint x="-670" y="-120" />
            </Array>
          </mxGeometry>
        </mxCell>
        <mxCell id="JnuiVlX9hye5FPYkadC7-124" value="" style="endArrow=classic;html=1;rounded=0;entryX=0.5;entryY=0;entryDx=0;entryDy=0;" edge="1" parent="WIyWlLk6GJQsqaUBKTNV-1" target="JnuiVlX9hye5FPYkadC7-117">
          <mxGeometry width="50" height="50" relative="1" as="geometry">
            <mxPoint x="-670" y="-340" as="sourcePoint" />
            <mxPoint x="-700" y="-100" as="targetPoint" />
            <Array as="points">
              <mxPoint x="-670" y="-160" />
              <mxPoint x="-535" y="-160" />
            </Array>
          </mxGeometry>
        </mxCell>
        <mxCell id="JnuiVlX9hye5FPYkadC7-125" value="Сдвигаем левую границу массива на один элемент" style="rounded=1;whiteSpace=wrap;html=1;" vertex="1" parent="WIyWlLk6GJQsqaUBKTNV-1">
          <mxGeometry x="-280" y="-410" width="120" height="60" as="geometry" />
        </mxCell>
        <mxCell id="JnuiVlX9hye5FPYkadC7-130" value="" style="endArrow=none;html=1;rounded=0;entryX=0.5;entryY=1;entryDx=0;entryDy=0;" edge="1" parent="WIyWlLk6GJQsqaUBKTNV-1">
          <mxGeometry width="50" height="50" relative="1" as="geometry">
            <mxPoint x="-535.4" y="-1010" as="sourcePoint" />
            <mxPoint x="-535.4" y="-1070" as="targetPoint" />
          </mxGeometry>
        </mxCell>
        <mxCell id="JnuiVlX9hye5FPYkadC7-131" value="" style="endArrow=none;html=1;rounded=0;entryX=0.544;entryY=1;entryDx=0;entryDy=0;exitX=0.5;exitY=0;exitDx=0;exitDy=0;entryPerimeter=0;" edge="1" parent="WIyWlLk6GJQsqaUBKTNV-1" source="JnuiVlX9hye5FPYkadC7-89" target="JnuiVlX9hye5FPYkadC7-8">
          <mxGeometry width="50" height="50" relative="1" as="geometry">
            <mxPoint x="-530" y="-820" as="sourcePoint" />
            <mxPoint x="-350" y="-1000" as="targetPoint" />
          </mxGeometry>
        </mxCell>
        <mxCell id="JnuiVlX9hye5FPYkadC7-133" value="" style="endArrow=classic;html=1;rounded=0;exitX=0.5;exitY=0;exitDx=0;exitDy=0;" edge="1" parent="WIyWlLk6GJQsqaUBKTNV-1" source="JnuiVlX9hye5FPYkadC7-125">
          <mxGeometry width="50" height="50" relative="1" as="geometry">
            <mxPoint x="-400" y="-670" as="sourcePoint" />
            <mxPoint x="-530" y="-870" as="targetPoint" />
            <Array as="points">
              <mxPoint x="-220" y="-870" />
            </Array>
          </mxGeometry>
        </mxCell>
        <mxCell id="JnuiVlX9hye5FPYkadC7-136" value="В цикле были перемещения" style="rhombus;whiteSpace=wrap;html=1;" vertex="1" parent="WIyWlLk6GJQsqaUBKTNV-1">
          <mxGeometry x="-740" y="-610" width="140" height="50" as="geometry" />
        </mxCell>
        <mxCell id="JnuiVlX9hye5FPYkadC7-137" value="В цикле были перемещения" style="rhombus;whiteSpace=wrap;html=1;" vertex="1" parent="WIyWlLk6GJQsqaUBKTNV-1">
          <mxGeometry x="-290" y="-230" width="140" height="50" as="geometry" />
        </mxCell>
        <mxCell id="JnuiVlX9hye5FPYkadC7-140" value="" style="endArrow=classic;html=1;rounded=0;" edge="1" parent="WIyWlLk6GJQsqaUBKTNV-1">
          <mxGeometry width="50" height="50" relative="1" as="geometry">
            <mxPoint x="-220" y="-10" as="sourcePoint" />
            <mxPoint x="-220" y="-180" as="targetPoint" />
          </mxGeometry>
        </mxCell>
        <mxCell id="JnuiVlX9hye5FPYkadC7-141" value="" style="endArrow=classic;html=1;rounded=0;entryX=0.5;entryY=0;entryDx=0;entryDy=0;" edge="1" parent="WIyWlLk6GJQsqaUBKTNV-1" target="JnuiVlX9hye5FPYkadC7-136">
          <mxGeometry width="50" height="50" relative="1" as="geometry">
            <mxPoint x="-670" y="-690" as="sourcePoint" />
            <mxPoint x="-350" y="-680" as="targetPoint" />
          </mxGeometry>
        </mxCell>
        <mxCell id="JnuiVlX9hye5FPYkadC7-142" value="" style="endArrow=classic;html=1;rounded=0;exitX=1;exitY=0.5;exitDx=0;exitDy=0;entryX=1;entryY=0.5;entryDx=0;entryDy=0;" edge="1" parent="WIyWlLk6GJQsqaUBKTNV-1" source="JnuiVlX9hye5FPYkadC7-137" target="JnuiVlX9hye5FPYkadC7-144">
          <mxGeometry width="50" height="50" relative="1" as="geometry">
            <mxPoint x="-400" y="-120" as="sourcePoint" />
            <mxPoint x="-494.42681147583335" y="521.8529959071884" as="targetPoint" />
            <Array as="points">
              <mxPoint x="-100" y="-205" />
              <mxPoint x="-100" y="580" />
            </Array>
          </mxGeometry>
        </mxCell>
        <mxCell id="JnuiVlX9hye5FPYkadC7-146" value="НЕТ" style="edgeLabel;html=1;align=center;verticalAlign=middle;resizable=0;points=[];" vertex="1" connectable="0" parent="JnuiVlX9hye5FPYkadC7-142">
          <mxGeometry x="-0.9493" y="3" relative="1" as="geometry">
            <mxPoint as="offset" />
          </mxGeometry>
        </mxCell>
        <mxCell id="JnuiVlX9hye5FPYkadC7-144" value="Стоп" style="ellipse;whiteSpace=wrap;html=1;" vertex="1" parent="WIyWlLk6GJQsqaUBKTNV-1">
          <mxGeometry x="-590" y="540" width="120" height="80" as="geometry" />
        </mxCell>
        <mxCell id="JnuiVlX9hye5FPYkadC7-145" value="" style="endArrow=classic;html=1;rounded=0;exitX=0;exitY=0.5;exitDx=0;exitDy=0;entryX=0;entryY=0.5;entryDx=0;entryDy=0;" edge="1" parent="WIyWlLk6GJQsqaUBKTNV-1" source="JnuiVlX9hye5FPYkadC7-136" target="JnuiVlX9hye5FPYkadC7-144">
          <mxGeometry width="50" height="50" relative="1" as="geometry">
            <mxPoint x="-400" y="60" as="sourcePoint" />
            <mxPoint x="-350" y="10" as="targetPoint" />
            <Array as="points">
              <mxPoint x="-780" y="-585" />
              <mxPoint x="-780" y="580" />
            </Array>
          </mxGeometry>
        </mxCell>
        <mxCell id="JnuiVlX9hye5FPYkadC7-147" value="НЕТ" style="edgeLabel;html=1;align=center;verticalAlign=middle;resizable=0;points=[];" vertex="1" connectable="0" parent="JnuiVlX9hye5FPYkadC7-145">
          <mxGeometry x="-0.9567" y="1" relative="1" as="geometry">
            <mxPoint x="10" y="-1" as="offset" />
          </mxGeometry>
        </mxCell>
      </root>
    </mxGraphModel>
  </diagram>
</mxfile>
